<svg width="141" height="132" viewBox="0 0 141 132" fill="none" xmlns="http://www.w3.org/2000/svg">
<circle cx="75" cy="66" r="63" fill="#232427" stroke="#232427" stroke-width="6"/>
<path d="M75.0002 125.693C108.012 125.693 134.778 98.9703 134.778 66.0004C134.778 33.0304 108.012 6.30806 75.0002 6.30806C41.9886 6.30806 15.2224 33.0304 15.2224 66.0004C15.2224 98.9703 41.9886 125.693 75.0002 125.693Z" fill="#232427" stroke="#FBFAF5" stroke-width="4"/>
<path d="M35.7197 47.8369L35.0361 52.9883C34.8001 52.9232 34.5641 52.8784 34.3281 52.854C34.0921 52.8296 33.8561 52.8174 33.6201 52.8174C33.0179 52.8174 32.4442 52.8988 31.8989 53.0615C31.3537 53.2161 30.8695 53.4562 30.4463 53.7817C30.0312 54.1073 29.6976 54.5142 29.4453 55.0024C29.2012 55.4907 29.0791 56.0645 29.0791 56.7236C29.0791 57.1468 29.1442 57.513 29.2744 57.8223C29.4128 58.1315 29.604 58.3879 29.8481 58.5913C30.0923 58.7948 30.3812 58.9453 30.7148 59.043C31.0485 59.1406 31.4147 59.1895 31.8135 59.1895C32.1146 59.1895 32.4279 59.1569 32.7534 59.0918C33.0789 59.0267 33.4004 58.9412 33.7178 58.8354C34.0352 58.7297 34.3444 58.6076 34.6455 58.4692C34.9466 58.3309 35.2233 58.1885 35.4756 58.042L34.9873 63.7793C34.6699 63.9421 34.3241 64.0885 33.9497 64.2188C33.5835 64.3408 33.2051 64.4507 32.8145 64.5483C32.4238 64.6379 32.0332 64.707 31.6426 64.7559C31.252 64.8047 30.8776 64.8291 30.5195 64.8291C29.486 64.8291 28.5216 64.6379 27.6265 64.2554C26.7313 63.8729 25.9541 63.348 25.2949 62.6807C24.6357 62.0133 24.1149 61.228 23.7324 60.3247C23.3581 59.4132 23.1709 58.4326 23.1709 57.3828C23.1709 55.9912 23.3703 54.681 23.769 53.4521C24.1678 52.2152 24.7537 51.1328 25.5269 50.2051C26.3 49.2773 27.2562 48.5449 28.3955 48.0078C29.543 47.4707 30.8613 47.2021 32.3506 47.2021C32.9121 47.2021 33.4858 47.2469 34.0718 47.3364C34.6659 47.4259 35.2152 47.5928 35.7197 47.8369ZM50.7954 53.2324C50.7954 53.8672 50.7384 54.445 50.6245 54.9658C50.5187 55.4785 50.3478 55.9505 50.1118 56.3818C49.8758 56.8132 49.5706 57.2119 49.1963 57.5781C48.8219 57.9443 48.3703 58.2943 47.8413 58.6279L50.7466 63.8037L45.2534 64.8779L43.3735 59.6777L41.8599 59.7266L41.6401 64.8047H36.3911C36.4318 62.9492 36.4684 61.1019 36.501 59.2627C36.5417 57.4235 36.5864 55.5762 36.6353 53.7207C36.6515 52.7848 36.6678 51.8571 36.6841 50.9375C36.7004 50.0179 36.7329 49.0902 36.7817 48.1543C37.3514 47.9427 37.9129 47.7677 38.4663 47.6294C39.0197 47.491 39.5731 47.3853 40.1265 47.312C40.688 47.2306 41.2536 47.1777 41.8232 47.1533C42.401 47.1208 42.991 47.1045 43.5933 47.1045C44.521 47.1045 45.4162 47.2347 46.2788 47.4951C47.1496 47.7474 47.9186 48.1299 48.5859 48.6426C49.2533 49.1553 49.7863 49.7941 50.1851 50.5591C50.592 51.3241 50.7954 52.2152 50.7954 53.2324ZM45.3267 53.623C45.3267 53.2812 45.2778 52.9679 45.1802 52.6831C45.0907 52.3983 44.9523 52.1541 44.7651 51.9507C44.5861 51.7391 44.3582 51.5763 44.0815 51.4624C43.813 51.3403 43.4956 51.2793 43.1294 51.2793C42.9666 51.2793 42.8079 51.2915 42.6533 51.3159C42.4987 51.3322 42.3481 51.3607 42.2017 51.4014L42.0063 55.9424H42.2993C42.6493 55.9424 43.0033 55.8976 43.3613 55.8081C43.7275 55.7186 44.0531 55.5802 44.3379 55.3931C44.6309 55.2059 44.8669 54.9658 45.0459 54.6729C45.2331 54.3799 45.3267 54.0299 45.3267 53.623ZM66.5669 56.3818C66.5669 57.1224 66.4814 57.8385 66.3105 58.5303C66.1396 59.2139 65.8914 59.8568 65.5659 60.459C65.2485 61.0612 64.8579 61.6146 64.394 62.1191C63.9383 62.6156 63.4215 63.0428 62.8438 63.4009C62.2741 63.759 61.6515 64.0397 60.9761 64.2432C60.3006 64.4385 59.5845 64.5361 58.8276 64.5361C58.0952 64.5361 57.3953 64.4425 56.728 64.2554C56.0688 64.0682 55.4504 63.8078 54.8726 63.4741C54.2948 63.1323 53.7699 62.7254 53.2979 62.2534C52.834 61.7733 52.4352 61.2443 52.1016 60.6665C51.776 60.0806 51.5197 59.4539 51.3325 58.7866C51.1535 58.1193 51.064 57.4235 51.064 56.6992C51.064 55.9912 51.1494 55.2995 51.3203 54.624C51.4912 53.9404 51.7354 53.2975 52.0527 52.6953C52.3783 52.0931 52.7689 51.5397 53.2246 51.0352C53.6803 50.5306 54.189 50.0952 54.7505 49.729C55.3201 49.3628 55.9346 49.078 56.5938 48.8745C57.2529 48.6711 57.9487 48.5693 58.6812 48.5693C59.8612 48.5693 60.9354 48.7524 61.9038 49.1187C62.8804 49.4849 63.7104 50.0098 64.394 50.6934C65.0858 51.3688 65.6188 52.1908 65.9932 53.1592C66.3757 54.1195 66.5669 55.1937 66.5669 56.3818ZM61.147 56.6992C61.147 56.3493 61.0941 56.0116 60.9883 55.686C60.8906 55.3524 60.7441 55.0594 60.5488 54.8071C60.3535 54.5467 60.1094 54.3392 59.8164 54.1846C59.5316 54.0218 59.202 53.9404 58.8276 53.9404C58.4451 53.9404 58.1034 54.0096 57.8022 54.1479C57.5011 54.2863 57.2407 54.4775 57.021 54.7217C56.8094 54.9577 56.6466 55.2384 56.5327 55.564C56.4188 55.8813 56.3618 56.2191 56.3618 56.5771C56.3618 56.9189 56.4106 57.2607 56.5083 57.6025C56.606 57.9443 56.7524 58.2536 56.9478 58.5303C57.1431 58.807 57.3831 59.0308 57.668 59.2017C57.9609 59.3726 58.2987 59.458 58.6812 59.458C59.0636 59.458 59.4054 59.3848 59.7065 59.2383C60.0158 59.0837 60.2762 58.8802 60.4878 58.6279C60.6994 58.3675 60.8621 58.0705 60.9761 57.7368C61.09 57.4032 61.147 57.0573 61.147 56.6992ZM79.7993 58.5059C79.7993 59.6208 79.604 60.5973 79.2134 61.4355C78.8309 62.2656 78.3019 62.9574 77.6265 63.5107C76.9591 64.0641 76.1738 64.4792 75.2705 64.7559C74.3753 65.0326 73.411 65.1709 72.3774 65.1709C71.9787 65.1709 71.5392 65.118 71.0591 65.0122C70.5871 64.9064 70.1069 64.7762 69.6187 64.6216C69.1304 64.4588 68.6584 64.2879 68.2026 64.1089C67.755 63.9217 67.3563 63.7467 67.0063 63.584L67.5435 58.5547C68.2352 58.9697 69.0002 59.2871 69.8384 59.5068C70.6847 59.7184 71.5148 59.8242 72.3286 59.8242C72.4832 59.8242 72.6704 59.8201 72.8901 59.812C73.1099 59.7957 73.3174 59.7591 73.5127 59.7021C73.7161 59.637 73.887 59.5435 74.0254 59.4214C74.1637 59.2993 74.2329 59.1243 74.2329 58.8965C74.2329 58.7419 74.1841 58.6117 74.0864 58.5059C73.9888 58.3919 73.8626 58.3024 73.708 58.2373C73.5534 58.1641 73.3784 58.1112 73.1831 58.0786C72.9878 58.0379 72.7965 58.0094 72.6094 57.9932C72.4222 57.9769 72.2472 57.9688 72.0845 57.9688C71.9217 57.9688 71.7915 57.9688 71.6938 57.9688C70.994 57.9688 70.3551 57.8467 69.7773 57.6025C69.2077 57.3584 68.7153 57.0207 68.3003 56.5894C67.8934 56.1499 67.576 55.6331 67.3481 55.0391C67.1203 54.4368 67.0063 53.7858 67.0063 53.0859C67.0063 52.1257 67.1976 51.2671 67.5801 50.5103C67.9707 49.7453 68.4875 49.0983 69.1304 48.5693C69.7814 48.0322 70.526 47.6213 71.3643 47.3364C72.2025 47.0516 73.0692 46.9092 73.9644 46.9092C74.3631 46.9092 74.7741 46.9255 75.1973 46.958C75.6204 46.9824 76.0396 47.0312 76.4546 47.1045C76.8778 47.1777 77.2887 47.2713 77.6875 47.3853C78.0863 47.4992 78.4647 47.6416 78.8228 47.8125L78.3589 52.7686C77.8055 52.5814 77.2236 52.4268 76.6133 52.3047C76.0111 52.1745 75.4211 52.1094 74.8433 52.1094C74.7375 52.1094 74.5991 52.1134 74.4282 52.1216C74.2655 52.1216 74.0905 52.1338 73.9033 52.1582C73.7243 52.1745 73.5412 52.203 73.354 52.2437C73.1668 52.2843 73 52.3413 72.8535 52.4146C72.707 52.4797 72.589 52.5692 72.4995 52.6831C72.41 52.797 72.3693 52.9313 72.3774 53.0859C72.3856 53.265 72.4507 53.4115 72.5728 53.5254C72.703 53.6312 72.8657 53.7166 73.061 53.7817C73.2645 53.8387 73.4842 53.8794 73.7202 53.9038C73.9644 53.9282 74.2044 53.9445 74.4404 53.9526C74.6764 53.9526 74.8962 53.9526 75.0996 53.9526C75.3031 53.9445 75.4699 53.9486 75.6001 53.9648C76.2511 54.0055 76.8371 54.1439 77.3579 54.3799C77.8787 54.6159 78.3182 54.9292 78.6763 55.3198C79.0425 55.7104 79.3192 56.1784 79.5063 56.7236C79.7017 57.2607 79.7993 57.8548 79.7993 58.5059ZM92.9585 58.5059C92.9585 59.6208 92.7632 60.5973 92.3726 61.4355C91.9901 62.2656 91.4611 62.9574 90.7856 63.5107C90.1183 64.0641 89.333 64.4792 88.4297 64.7559C87.5345 65.0326 86.5701 65.1709 85.5366 65.1709C85.1379 65.1709 84.6984 65.118 84.2183 65.0122C83.7463 64.9064 83.2661 64.7762 82.7778 64.6216C82.2896 64.4588 81.8175 64.2879 81.3618 64.1089C80.9142 63.9217 80.5155 63.7467 80.1655 63.584L80.7026 58.5547C81.3944 58.9697 82.1593 59.2871 82.9976 59.5068C83.8439 59.7184 84.674 59.8242 85.4878 59.8242C85.6424 59.8242 85.8296 59.8201 86.0493 59.812C86.269 59.7957 86.4766 59.7591 86.6719 59.7021C86.8753 59.637 87.0462 59.5435 87.1846 59.4214C87.3229 59.2993 87.3921 59.1243 87.3921 58.8965C87.3921 58.7419 87.3433 58.6117 87.2456 58.5059C87.1479 58.3919 87.0218 58.3024 86.8672 58.2373C86.7126 58.1641 86.5376 58.1112 86.3423 58.0786C86.147 58.0379 85.9557 58.0094 85.7686 57.9932C85.5814 57.9769 85.4064 57.9688 85.2437 57.9688C85.0809 57.9688 84.9507 57.9688 84.853 57.9688C84.1532 57.9688 83.5143 57.8467 82.9365 57.6025C82.3669 57.3584 81.8745 57.0207 81.4595 56.5894C81.0526 56.1499 80.7352 55.6331 80.5073 55.0391C80.2795 54.4368 80.1655 53.7858 80.1655 53.0859C80.1655 52.1257 80.3568 51.2671 80.7393 50.5103C81.1299 49.7453 81.6466 49.0983 82.2896 48.5693C82.9406 48.0322 83.6852 47.6213 84.5234 47.3364C85.3617 47.0516 86.2284 46.9092 87.1235 46.9092C87.5223 46.9092 87.9333 46.9255 88.3564 46.958C88.7796 46.9824 89.1987 47.0312 89.6138 47.1045C90.0369 47.1777 90.4479 47.2713 90.8467 47.3853C91.2454 47.4992 91.6239 47.6416 91.9819 47.8125L91.5181 52.7686C90.9647 52.5814 90.3828 52.4268 89.7725 52.3047C89.1702 52.1745 88.5802 52.1094 88.0024 52.1094C87.8966 52.1094 87.7583 52.1134 87.5874 52.1216C87.4246 52.1216 87.2497 52.1338 87.0625 52.1582C86.8835 52.1745 86.7004 52.203 86.5132 52.2437C86.326 52.2843 86.1592 52.3413 86.0127 52.4146C85.8662 52.4797 85.7482 52.5692 85.6587 52.6831C85.5692 52.797 85.5285 52.9313 85.5366 53.0859C85.5448 53.265 85.6099 53.4115 85.7319 53.5254C85.8621 53.6312 86.0249 53.7166 86.2202 53.7817C86.4237 53.8387 86.6434 53.8794 86.8794 53.9038C87.1235 53.9282 87.3636 53.9445 87.5996 53.9526C87.8356 53.9526 88.0553 53.9526 88.2588 53.9526C88.4622 53.9445 88.6291 53.9486 88.7593 53.9648C89.4103 54.0055 89.9963 54.1439 90.5171 54.3799C91.0379 54.6159 91.4774 54.9292 91.8354 55.3198C92.2017 55.7104 92.4784 56.1784 92.6655 56.7236C92.8608 57.2607 92.9585 57.8548 92.9585 58.5059ZM105.3 47.3975C105.251 48.1624 105.206 48.9193 105.166 49.668C105.125 50.4167 105.072 51.1735 105.007 51.9385L99.8311 52.207V53.7451H104.323L104.079 57.5293L99.8066 57.6514L99.8311 64.8779L93.6543 65L94.0449 47.3975H105.3ZM112.514 47.8125L111.171 64.4385L106.02 64.707V48.1543L112.514 47.8125ZM126.271 47.5439L126.149 52.7197L122.512 52.8662L121.584 64.4385L116.433 64.707L116.457 53.1348L112.819 53.3301L112.966 47.5684L126.271 47.5439Z" fill="#FBFAF5"/>
<path d="M35.5479 80.2852C35.5479 81.2663 35.376 82.1257 35.0322 82.8633C34.6956 83.5938 34.2301 84.2025 33.6357 84.6895C33.0485 85.1764 32.3574 85.5417 31.5625 85.7852C30.7747 86.0286 29.9261 86.1504 29.0166 86.1504C28.6657 86.1504 28.279 86.1038 27.8564 86.0107C27.4411 85.9176 27.0186 85.8031 26.5889 85.667C26.1592 85.5238 25.7438 85.3734 25.3428 85.2158C24.9489 85.0511 24.598 84.8971 24.29 84.7539L24.7627 80.3281C25.3714 80.6934 26.0446 80.9727 26.7822 81.166C27.527 81.3522 28.2575 81.4453 28.9736 81.4453C29.1097 81.4453 29.2744 81.4417 29.4678 81.4346C29.6611 81.4202 29.8438 81.388 30.0156 81.3379C30.1947 81.2806 30.3451 81.1982 30.4668 81.0908C30.5885 80.9834 30.6494 80.8294 30.6494 80.6289C30.6494 80.4928 30.6064 80.3783 30.5205 80.2852C30.4346 80.1849 30.3236 80.1061 30.1875 80.0488C30.0514 79.9844 29.8975 79.9378 29.7256 79.9092C29.5537 79.8734 29.3854 79.8483 29.2207 79.834C29.056 79.8197 28.902 79.8125 28.7588 79.8125C28.6156 79.8125 28.501 79.8125 28.415 79.8125C27.7992 79.8125 27.237 79.7051 26.7285 79.4902C26.2272 79.2754 25.7939 78.9782 25.4287 78.5986C25.0706 78.2119 24.7913 77.7572 24.5908 77.2344C24.3903 76.7044 24.29 76.1315 24.29 75.5156C24.29 74.6706 24.4583 73.915 24.7949 73.249C25.1387 72.5758 25.5934 72.0065 26.1592 71.541C26.7321 71.0684 27.3874 70.7067 28.125 70.4561C28.8626 70.2054 29.6253 70.0801 30.4131 70.0801C30.764 70.0801 31.1257 70.0944 31.498 70.123C31.8704 70.1445 32.2393 70.1875 32.6045 70.252C32.9769 70.3164 33.3385 70.3988 33.6895 70.499C34.0404 70.5993 34.3734 70.7246 34.6885 70.875L34.2803 75.2363C33.7933 75.0716 33.2812 74.9355 32.7441 74.8281C32.2142 74.7135 31.695 74.6562 31.1865 74.6562C31.0934 74.6562 30.9717 74.6598 30.8213 74.667C30.6781 74.667 30.5241 74.6777 30.3594 74.6992C30.2018 74.7135 30.0407 74.7386 29.876 74.7744C29.7113 74.8102 29.5645 74.8604 29.4355 74.9248C29.3066 74.9821 29.2028 75.0609 29.124 75.1611C29.0452 75.2614 29.0094 75.3796 29.0166 75.5156C29.0238 75.6732 29.0811 75.8021 29.1885 75.9023C29.3031 75.9954 29.4463 76.0706 29.6182 76.1279C29.7972 76.1781 29.9906 76.2139 30.1982 76.2354C30.4131 76.2568 30.6243 76.2712 30.832 76.2783C31.0397 76.2783 31.2331 76.2783 31.4121 76.2783C31.5911 76.2712 31.738 76.2747 31.8525 76.2891C32.4255 76.3249 32.9411 76.4466 33.3994 76.6543C33.8577 76.862 34.2445 77.1377 34.5596 77.4814C34.8818 77.8252 35.1253 78.237 35.29 78.7168C35.4619 79.1895 35.5479 79.7122 35.5479 80.2852ZM49.5127 77.7715C49.5127 78.4232 49.4375 79.0534 49.2871 79.6621C49.1367 80.2637 48.9183 80.8294 48.6318 81.3594C48.3525 81.8893 48.0088 82.3763 47.6006 82.8203C47.1995 83.2572 46.7448 83.6331 46.2363 83.9482C45.735 84.2633 45.1872 84.5104 44.5928 84.6895C43.9984 84.8613 43.3682 84.9473 42.7021 84.9473C42.0576 84.9473 41.4417 84.8649 40.8545 84.7002C40.2744 84.5355 39.7301 84.3063 39.2217 84.0127C38.7132 83.7119 38.2513 83.3538 37.8359 82.9385C37.4277 82.516 37.0768 82.0505 36.7832 81.542C36.4967 81.0264 36.2712 80.4749 36.1064 79.8877C35.9489 79.3005 35.8701 78.6882 35.8701 78.0508C35.8701 77.4277 35.9453 76.819 36.0957 76.2246C36.2461 75.623 36.4609 75.0573 36.7402 74.5273C37.0267 73.9974 37.3704 73.5104 37.7715 73.0664C38.1725 72.6224 38.6201 72.2393 39.1143 71.917C39.6156 71.5947 40.1562 71.3441 40.7363 71.165C41.3164 70.986 41.9287 70.8965 42.5732 70.8965C43.6117 70.8965 44.557 71.0576 45.4092 71.3799C46.2686 71.7021 46.999 72.1641 47.6006 72.7656C48.2093 73.36 48.6784 74.0833 49.0078 74.9355C49.3444 75.7806 49.5127 76.7259 49.5127 77.7715ZM44.7432 78.0508C44.7432 77.7428 44.6966 77.4456 44.6035 77.1592C44.5176 76.8656 44.3887 76.6077 44.2168 76.3857C44.0449 76.1566 43.8301 75.974 43.5723 75.8379C43.3216 75.6947 43.0316 75.623 42.7021 75.623C42.3656 75.623 42.0648 75.6839 41.7998 75.8057C41.5348 75.9274 41.3057 76.0957 41.1123 76.3105C40.9261 76.5182 40.7829 76.7653 40.6826 77.0518C40.5824 77.3311 40.5322 77.6283 40.5322 77.9434C40.5322 78.2441 40.5752 78.5449 40.6611 78.8457C40.7471 79.1465 40.876 79.4186 41.0479 79.6621C41.2197 79.9056 41.431 80.1025 41.6816 80.2529C41.9395 80.4033 42.2367 80.4785 42.5732 80.4785C42.9098 80.4785 43.2106 80.4141 43.4756 80.2852C43.7477 80.1491 43.9769 79.9701 44.1631 79.748C44.3493 79.5189 44.4925 79.2575 44.5928 78.9639C44.693 78.6702 44.7432 78.3659 44.7432 78.0508ZM63.0693 70.875C62.7471 73.3958 62.4714 75.9059 62.2422 78.4053C62.013 80.8975 61.7946 83.4076 61.5869 85.9355L57.1826 86.2578L57.376 84.6035C57.2327 84.7682 57.0645 84.9115 56.8711 85.0332C56.6849 85.1549 56.4844 85.2552 56.2695 85.334C56.0547 85.4056 55.8327 85.4593 55.6035 85.4951C55.3743 85.5238 55.1559 85.5345 54.9482 85.5273C54.4613 85.5202 54.0029 85.4271 53.5732 85.248C53.1436 85.0618 52.7497 84.8184 52.3916 84.5176C52.0335 84.2096 51.7113 83.8551 51.4248 83.4541C51.1383 83.0459 50.8949 82.6198 50.6943 82.1758C50.501 81.7246 50.3506 81.2663 50.2432 80.8008C50.1429 80.3353 50.0928 79.8841 50.0928 79.4473C50.0928 78.8027 50.1035 78.1367 50.125 77.4492C50.1536 76.7546 50.2002 76.0599 50.2646 75.3652C50.3291 74.6706 50.4115 73.9831 50.5117 73.3027C50.6191 72.6224 50.7516 71.9707 50.9092 71.3477C51.7829 71.3906 52.6602 71.43 53.541 71.4658C54.4219 71.5016 55.2992 71.5124 56.1729 71.498C56.0081 72.1211 55.8434 72.7477 55.6787 73.3779C55.5212 74.001 55.3779 74.6312 55.249 75.2686C55.1201 75.8988 55.0163 76.5326 54.9375 77.1699C54.8587 77.8073 54.8193 78.4518 54.8193 79.1035C54.8193 79.2539 54.8265 79.4688 54.8408 79.748C54.8551 80.0273 54.891 80.3031 54.9482 80.5752C55.0127 80.8473 55.1058 81.0872 55.2275 81.2949C55.3564 81.4954 55.5355 81.5957 55.7646 81.5957C56.0368 81.5957 56.2803 81.4811 56.4951 81.252C56.71 81.0156 56.8997 80.7005 57.0645 80.3066C57.2292 79.9128 57.3688 79.458 57.4834 78.9424C57.6051 78.4268 57.7054 77.8896 57.7842 77.3311C57.8701 76.7653 57.9382 76.196 57.9883 75.623C58.0384 75.0501 58.0742 74.513 58.0957 74.0117C58.1243 73.5033 58.1423 73.0485 58.1494 72.6475C58.1637 72.2464 58.1709 71.9349 58.1709 71.7129C58.1709 71.5697 58.1673 71.43 58.1602 71.2939C58.153 71.1579 58.1423 71.0182 58.1279 70.875C58.5934 70.8893 59.0553 70.9001 59.5137 70.9072C59.972 70.9144 60.4339 70.918 60.8994 70.918C61.2575 70.918 61.6156 70.918 61.9736 70.918C62.3389 70.9108 62.7041 70.8965 63.0693 70.875ZM73.1348 80.3066L72.6836 85.0762L63.6387 85.7852L63.9824 70.4453H69.5684L68.7734 80.3066H73.1348ZM90.2471 70.3379L89.2588 86.1074L84.3604 86.3223L84.4033 78.0078L82.1904 84.7109H80.2998L78.6025 78.7168L78.5811 85.6777L73.6182 85.8281L73.833 70.9824L79.3545 70.7676L81.5459 77.8789L84.4678 70.3379H90.2471ZM104.395 85.0762L99.0664 85.7637L98.4219 83.3359H95.9727L95.4355 85.7637L89.957 85.2266L94.2324 70.918L100.205 70.6172L104.395 85.0762ZM98.0352 80.0488L97.2188 76.3105L96.4238 80.0488H98.0352ZM114.707 70.6387L114.6 75.1934L111.398 75.3223L110.582 85.5059L106.049 85.7422L106.07 75.5586L102.869 75.7305L102.998 70.6602L114.707 70.6387ZM125.471 70.5098C125.428 71.1829 125.388 71.849 125.353 72.5078C125.317 73.1667 125.27 73.8327 125.213 74.5059L120.658 74.7422L120.551 76.0957H123.752L123.516 79.4258L120.293 79.5332L120.186 81.1016H122.85H124.74C124.697 81.8893 124.651 82.6735 124.601 83.4541C124.558 84.2275 124.518 85.0046 124.482 85.7852L115.223 86L115.566 70.5098H125.471Z" fill="#FBFAF5"/>
<rect y="17" width="50" height="30" fill="#232427"/>
<path d="M29.5684 32.3789C29.5684 33.3099 29.5391 34.2376 29.4805 35.1621C29.4219 36.0866 29.3535 37.0143 29.2754 37.9453L24.2559 38.1797C24.4056 37.0469 24.5391 35.9141 24.6562 34.7812C24.7799 33.6419 24.8418 32.5026 24.8418 31.3633C24.8418 31.2917 24.8385 31.168 24.832 30.9922C24.8255 30.8099 24.8125 30.6048 24.793 30.377C24.7799 30.1491 24.7572 29.9147 24.7246 29.6738C24.6986 29.4264 24.6595 29.2018 24.6074 29C24.5618 28.7917 24.5033 28.6224 24.4316 28.4922C24.36 28.362 24.2754 28.2969 24.1777 28.2969C23.9499 28.2969 23.7708 28.3848 23.6406 28.5605C23.5104 28.7298 23.4128 28.9349 23.3477 29.1758C23.2891 29.4167 23.2533 29.6641 23.2402 29.918C23.2272 30.1654 23.2207 30.3672 23.2207 30.5234C23.2207 30.7969 23.2272 31.0703 23.2402 31.3438C23.2533 31.6172 23.2598 31.8971 23.2598 32.1836C23.2598 33.1927 23.2337 34.1986 23.1816 35.2012C23.1361 36.2038 23.0775 37.2096 23.0059 38.2188L18.377 38.3945C18.5267 37.2617 18.6569 36.1322 18.7676 35.0059C18.8848 33.873 18.9434 32.737 18.9434 31.5977C18.9434 31.526 18.9401 31.3958 18.9336 31.207C18.9271 31.0182 18.9141 30.8066 18.8945 30.5723C18.8815 30.3379 18.8587 30.0938 18.8262 29.8398C18.7936 29.5859 18.7513 29.3548 18.6992 29.1465C18.6536 28.9316 18.5951 28.7559 18.5234 28.6191C18.4518 28.4824 18.3639 28.4141 18.2598 28.4141C18.097 28.4141 17.9603 28.4792 17.8496 28.6094C17.7389 28.7331 17.6478 28.8958 17.5762 29.0977C17.5111 29.2995 17.459 29.5241 17.4199 29.7715C17.3874 30.0124 17.3613 30.25 17.3418 30.4844C17.3288 30.7188 17.319 30.9368 17.3125 31.1387C17.3125 31.334 17.3092 31.4805 17.3027 31.5781L17.0879 38.707H12.166C12.2702 37.6068 12.3743 36.5033 12.4785 35.3965C12.5892 34.2897 12.6836 33.1862 12.7617 32.0859C12.8464 30.9792 12.9147 29.8724 12.9668 28.7656C13.0189 27.6589 13.0449 26.5521 13.0449 25.4453L17.6934 25.25L17.6738 26.3828C17.8171 26.2005 17.9798 26.0182 18.1621 25.8359C18.3444 25.6471 18.5365 25.4811 18.7383 25.3379C18.9466 25.1882 19.1647 25.0677 19.3926 24.9766C19.627 24.8854 19.8678 24.8398 20.1152 24.8398C20.4342 24.8398 20.7207 24.8659 20.9746 24.918C21.2285 24.9635 21.4564 25.0449 21.6582 25.1621C21.8665 25.2793 22.0488 25.4421 22.2051 25.6504C22.3613 25.8522 22.498 26.1094 22.6152 26.4219C22.8236 26.194 23.0319 25.9824 23.2402 25.7871C23.4551 25.5918 23.6797 25.4258 23.9141 25.2891C24.1484 25.1458 24.4023 25.0352 24.6758 24.957C24.9492 24.8789 25.252 24.8398 25.584 24.8398C26.2155 24.8398 26.7526 24.9635 27.1953 25.2109C27.638 25.4518 28.0059 25.7741 28.2988 26.1777C28.5983 26.5814 28.8294 27.0436 28.9922 27.5645C29.1615 28.0853 29.2884 28.6257 29.373 29.1855C29.4577 29.7454 29.5098 30.3021 29.5293 30.8555C29.5553 31.4089 29.5684 31.9167 29.5684 32.3789ZM42.1562 25.7773L37.5664 33.2773L37.7031 38.8047H32.6836L32.8008 33.3164L29.2266 26.0703L34.207 25.4453L35.7695 29.6641L37.4688 25.4453L42.1562 25.7773Z" fill="white"/>
</svg>
